<svg width="23" height="23" viewBox="0 0 23 23" fill="none" xmlns="http://www.w3.org/2000/svg">
<g clip-path="url(#clip0_1_76)">
<path d="M4.35704 6.76367H18.5502C18.8378 6.76368 19.1222 6.82395 19.3852 6.94061C19.648 7.05726 19.8835 7.22769 20.0764 7.44092C20.2694 7.65416 20.4156 7.90547 20.5055 8.17865C20.5954 8.45182 20.627 8.74081 20.5984 9.02697L19.9809 15.2024C19.9301 15.7103 19.6923 16.1812 19.3139 16.5239C18.9354 16.8664 18.4432 17.056 17.9327 17.056H8.10347C7.62742 17.0563 7.16601 16.8915 6.79782 16.5896C6.42963 16.2879 6.17741 15.8679 6.0841 15.4011L4.35704 6.76367Z" stroke="#BDA26E" stroke-width="2.31579" stroke-linejoin="round"/>
<path d="M4.35555 6.76369L3.52186 3.42586C3.4661 3.20329 3.33757 3.00573 3.1567 2.86457C2.97581 2.7234 2.75294 2.64674 2.52349 2.64673H1.26782" stroke="#BDA26E" stroke-width="2.31579" stroke-linecap="round" stroke-linejoin="round"/>
<path d="M7.44289 21.1731H9.50137" stroke="#BDA26E" stroke-width="2.31579" stroke-linecap="round" stroke-linejoin="round"/>
<path d="M15.677 21.1731H17.7355" stroke="#BDA26E" stroke-width="2.31579" stroke-linecap="round" stroke-linejoin="round"/>
</g>
<defs>
<clipPath id="clip0_1_76">
<rect width="22" height="22" fill="white" transform="translate(0.109924 0.909912)"/>
</clipPath>
</defs>
</svg>
