<svg width="21" height="21" viewBox="0 0 21 21" fill="none" xmlns="http://www.w3.org/2000/svg">
<path d="M10.1599 20.6173C15.5293 20.6173 19.8821 16.2645 19.8821 10.8951C19.8821 5.52564 15.5293 1.17285 10.1599 1.17285C4.79047 1.17285 0.437683 5.52564 0.437683 10.8951C0.437683 16.2645 4.79047 20.6173 10.1599 20.6173Z" stroke="#BDA26E" stroke-opacity="0.2" stroke-width="0.555556"/>
<path d="M7.26269 5.89502C7.13491 5.89502 6.96602 5.89502 6.75713 5.94057C6.5934 5.97458 6.43226 6.02006 6.27491 6.07669C6.03825 6.21335 5.78713 6.48558 5.52158 6.98558C5.40822 7.17832 5.32009 7.38482 5.25936 7.60002L5.25769 7.60558C5.23547 7.68502 5.22047 7.76669 5.20602 7.8478C5.19936 7.88391 5.18936 7.92002 5.1838 7.95669C5.17547 8.0178 5.17436 8.07891 5.17047 8.14002C5.16713 8.19169 5.15991 8.24335 5.15991 8.29391V8.3028C5.15991 8.43891 5.16713 8.52946 5.18102 8.66558C5.19991 8.80169 5.23102 8.9378 5.27325 9.07446C5.31602 9.22613 5.34936 9.33891 5.37325 9.41502L5.4888 9.71058C5.50269 9.74613 5.50602 9.76058 5.52213 9.80113C5.59269 9.9828 5.63547 10.1195 5.64991 10.1645C5.74047 10.4145 5.84325 10.6461 5.95325 10.8684C6.04213 11.0556 6.13547 11.2361 6.2388 11.4017C6.4788 11.7917 6.78325 12.1861 7.13547 12.5906C7.33102 12.8211 7.53713 13.0561 7.76658 13.2989C8.19769 13.7211 8.61825 14.0784 9.03047 14.3806C9.23713 14.5367 9.44269 14.6834 9.64547 14.8089C9.96745 15.0059 10.3068 15.1729 10.6594 15.3078C10.7388 15.3395 10.8121 15.3756 10.8944 15.405C10.9371 15.4195 11.046 15.4617 11.2355 15.5328C11.3066 15.5595 11.3288 15.5667 11.3844 15.5861C11.441 15.6095 11.4899 15.6278 11.5305 15.6389C11.5577 15.6478 11.6144 15.6678 11.6327 15.675C11.6594 15.6834 11.716 15.6989 11.7527 15.7095C11.8182 15.7389 11.8738 15.7684 11.9705 15.7978C12.0416 15.7978 12.1082 15.8089 12.1721 15.8239L12.2055 15.8328C12.2655 15.8495 12.3232 15.8678 12.376 15.8884H12.7538C13.1894 15.8884 13.6288 15.7745 14.0738 15.5328C14.5521 15.2672 14.8405 15.0178 14.9399 14.7806C14.9671 14.7195 14.9916 14.6456 15.0155 14.5617L15.016 14.5589C15.041 14.4795 15.0649 14.3889 15.0888 14.2978C15.136 14.0711 15.1599 13.935 15.1599 13.7989C15.1599 13.7078 15.1527 13.6622 15.1388 13.6167C15.1349 13.6111 15.1082 13.5928 15.1005 13.5845C15.0451 13.525 14.9815 13.4737 14.9116 13.4322L14.906 13.44C14.8062 13.3732 14.7035 13.3107 14.5982 13.2528C14.5082 13.2072 14.381 13.1167 14.2149 13.0256C14.0494 12.935 13.8982 12.8895 13.761 12.7989C13.6277 12.7078 13.5021 12.6622 13.3838 12.5717C13.3649 12.5717 13.306 12.5272 13.206 12.4361C13.1178 12.3965 13.0324 12.3508 12.9505 12.2995C12.8844 12.2539 12.8182 12.2539 12.7521 12.2539C12.6577 12.2539 12.5388 12.2995 12.3971 12.4361C12.2549 12.5722 12.1238 12.7539 12.006 12.89C11.8963 13.0538 11.7703 13.2061 11.6299 13.3445C11.4971 13.4806 11.3882 13.5267 11.3032 13.5267C11.2448 13.5302 11.1869 13.5139 11.1388 13.4806C11.0777 13.4806 11.0305 13.435 10.9971 13.435C10.9638 13.435 10.9071 13.39 10.8266 13.3445C10.7466 13.2989 10.7016 13.2534 10.6921 13.2534C10.0432 12.89 9.48658 12.4811 9.02325 12.0272C8.55936 11.5728 8.14713 10.9828 7.78713 10.3467C7.78269 10.3467 7.7538 10.3006 7.70213 10.21C7.65491 10.1195 7.62158 10.0739 7.60269 10.0284C7.5888 10.0284 7.56936 9.98335 7.54602 9.89224C7.52324 9.85025 7.51104 9.80334 7.51047 9.75558C7.51047 9.66502 7.57713 9.52835 7.70936 9.39224C7.84658 9.25613 7.99269 9.16558 8.14936 9.02946C8.31047 8.93835 8.45769 8.80169 8.59047 8.66558C8.72769 8.48391 8.79602 8.39335 8.79602 8.3028C8.79602 8.21224 8.77936 8.16669 8.74602 8.07558C8.71269 8.03002 8.66102 7.93946 8.59047 7.84891C8.5238 7.71224 8.4838 7.66669 8.46936 7.66669C8.39769 7.5294 8.32416 7.39309 8.2488 7.2578C8.17269 7.12169 8.09047 6.98558 8.00047 6.80335C7.91047 6.66724 7.83936 6.53113 7.78769 6.44002C7.62158 6.12169 7.49658 5.94058 7.41102 5.89558L7.26325 5.89502H7.26269Z" fill="#BDA26E" fill-opacity="0.2"/>
</svg>
