<svg width="46" height="46" viewBox="0 0 46 46" fill="none" xmlns="http://www.w3.org/2000/svg">
<g clip-path="url(#clip0_1_84)">
<path d="M22.6099 45.5C35.0363 45.5 45.1099 35.4264 45.1099 23C45.1099 10.5736 35.0363 0.5 22.6099 0.5C10.1835 0.5 0.109924 10.5736 0.109924 23C0.109924 35.4264 10.1835 45.5 22.6099 45.5Z" fill="#C0C0C9"/>
<path d="M35.2422 34.0476C35.2422 34.2397 35.1341 34.4158 34.9181 34.5758C34.702 34.7359 34.3698 34.868 33.9217 34.972C33.4735 35.076 33.0133 35.1721 32.5411 35.2601C32.0689 35.3481 31.4647 35.4161 30.7284 35.4642C29.9922 35.5122 29.3519 35.5482 28.8077 35.5722C28.2635 35.5962 27.5632 35.6162 26.7069 35.6323C25.8506 35.6482 25.2023 35.6562 24.7622 35.6562H21.1368L19.192 35.6323L17.0912 35.5722L15.1705 35.4642L13.3579 35.2601L11.9773 34.972L10.9809 34.5758L10.6568 34.0476C10.6888 32.6391 11.5692 31.3946 13.2978 30.3142C15.0264 29.2338 17.2193 28.5176 19.8763 28.1654V27.3731C19.044 27.0049 18.3237 26.4848 17.7155 25.8125C17.1073 25.1402 16.6271 24.352 16.2749 23.4476C15.9228 22.5433 15.6667 21.5749 15.5067 20.5425C15.3466 19.5101 15.2666 18.3937 15.2666 17.1932C15.2666 16.1689 15.4667 15.2565 15.8668 14.4562C16.267 13.6559 16.8191 13.0116 17.5234 12.5234C18.2277 12.0353 19.036 11.6671 19.9483 11.419C20.8607 11.1709 21.8611 11.0469 22.9495 11.0469C24.0379 11.0469 25.0383 11.1709 25.9506 11.419C26.863 11.6671 27.6713 12.0353 28.3755 12.5234C29.0798 13.0116 29.632 13.6559 30.0322 14.4562C30.4323 15.2565 30.6324 16.1689 30.6324 17.1932C30.6324 22.7953 29.0958 26.2046 26.0227 27.4211V28.1654C28.6796 28.5176 30.8725 29.2338 32.6012 30.3142C34.3298 31.3946 35.2101 32.6391 35.2422 34.0476Z" fill="white"/>
</g>
<defs>
<clipPath id="clip0_1_84">
<rect width="45" height="45" fill="white" transform="translate(0.109924 0.5)"/>
</clipPath>
</defs>
</svg>
