<svg width="19" height="19" viewBox="0 0 19 19" fill="none" xmlns="http://www.w3.org/2000/svg">
<g clip-path="url(#clip0_1_72)">
<path d="M17.1925 17.4624L13.39 13.6532M15.4972 8.56216C15.4972 10.473 14.7382 12.3056 13.387 13.6569C12.0357 15.0081 10.2031 15.7671 8.29226 15.7671C6.38138 15.7671 4.54877 15.0081 3.19757 13.6569C1.84638 12.3056 1.08728 10.473 1.08728 8.56216C1.08728 6.65128 1.84638 4.81866 3.19757 3.46747C4.54877 2.11628 6.38138 1.35718 8.29226 1.35718C10.2031 1.35718 12.0357 2.11628 13.387 3.46747C14.7382 4.81866 15.4972 6.65128 15.4972 8.56216Z" stroke="#BDA26E" stroke-width="1.89474" stroke-linecap="round"/>
</g>
<defs>
<clipPath id="clip0_1_72">
<rect width="18" height="18" fill="white" transform="translate(0.139923 0.409912)"/>
</clipPath>
</defs>
</svg>
